<?xml version="1.0" standalone="no"?>
<!DOCTYPE svg PUBLIC "-//W3C//DTD SVG 20010904//EN"
 "http://www.w3.org/TR/2001/REC-SVG-20010904/DTD/svg10.dtd">
<svg version="1.0" xmlns="http://www.w3.org/2000/svg"
 width="2385.000000pt" height="701.000000pt" viewBox="0 0 2385.000000 701.000000"
 preserveAspectRatio="xMidYMid meet">

 <linearGradient id="gradient" x1="0%" y1="0%" x2="100%" y2="0%">
    <stop offset="0%" style="stop-color: #309F6A;" />
    <stop offset="100%" style="stop-color: #E3292E;" />
  </linearGradient>

  <linearGradient id="gradientForS" x1="0.13" y1="0.83" x2="0.87" y2="0.17">
      <stop offset="0%" stop-color="#309f6a"/>
      <stop offset="4%" stop-color="#309f6a"/>
      <stop offset="8%" stop-color="#309f6a"/>
      <stop offset="12%" stop-color="#309f6a"/>
      <stop offset="16%" stop-color="#309f6a"/>
      <stop offset="20%" stop-color="#309f6a"/>
      <stop offset="24%" stop-color="#309f6a"/>
      <stop offset="28%" stop-color="#309f6a"/>
      <stop offset="32%" stop-color="#309f6a"/>
      <stop offset="36%" stop-color="#309f6a"/>
      <stop offset="40%" stop-color="#309f6a"/>
      <stop offset="48%" stop-color="#309f6a"/>
      <stop offset="48.17%" stop-color="#2e9e4d"/>
      <stop offset="48.33%" stop-color="#4a9b2d"/>
      <stop offset="48.5%" stop-color="#67942d"/>
      <stop offset="48.67%" stop-color="#788e2c"/>
      <stop offset="48.83%" stop-color="#84882c"/>
      <stop offset="49%" stop-color="#8d832b"/>
      <stop offset="49.17%" stop-color="#967d2b"/>
      <stop offset="49.33%" stop-color="#9e772a"/>
      <stop offset="49.5%" stop-color="#a8702a"/>
      <stop offset="49.67%" stop-color="#b46629"/>
      <stop offset="50%" stop-color="#e3292e"/>
      <stop offset="54.17%" stop-color="#e3292e"/>
      <stop offset="58.33%" stop-color="#e3292e"/>
      <stop offset="62.5%" stop-color="#e3292e"/>
      <stop offset="66.67%" stop-color="#e3292e"/>
      <stop offset="70.83%" stop-color="#e3292e"/>
      <stop offset="75%" stop-color="#e3292e"/>
      <stop offset="79.17%" stop-color="#e3292e"/>
      <stop offset="83.33%" stop-color="#e3292e"/>
      <stop offset="87.5%" stop-color="#e3292e"/>
      <stop offset="91.67%" stop-color="#e3292e"/>
      <stop offset="100%" stop-color="#e3292e"/>
    </linearGradient>


<g transform="translate(0.000000,701.000000) scale(0.100000,-0.100000)"
fill="#000000" stroke="none">
<path d="M11512 4620 c-449 -63 -712 -348 -689 -745 12 -200 83 -340 230 -451
105 -80 240 -136 567 -235 201 -62 293 -103 355 -160 71 -66 90 -108 89 -204
0 -90 -19 -138 -76 -194 -86 -85 -243 -121 -390 -90 -143 31 -233 123 -253
262 l-7 47 -264 0 -264 0 0 -29 c0 -16 7 -65 15 -108 45 -238 232 -433 502
-523 196 -65 473 -78 663 -30 269 68 473 246 556 485 25 72 28 94 29 215 0
112 -4 147 -22 206 -47 149 -168 280 -336 364 -61 31 -201 83 -365 136 -282
91 -360 124 -431 182 -129 105 -118 325 20 416 61 41 142 59 233 53 183 -12
304 -103 331 -249 l7 -38 269 0 269 0 0 28 c0 58 -42 198 -83 276 -95 183
-293 322 -532 371 -93 19 -332 28 -423 15z" fill="url(#gradientForS)"/>

<path d="M3745 4473 c-27 -7 -226 -121 -247 -141 -10 -10 -34 -74 -54 -142 -78 -274 -70 -254 -112 -273 -21 -9 -74 -36 -117 -60 -365 -198 -466 -253 -556 -298 -57 -29 -115 -60 -129 -69 -14 -9 -68 -39 -120 -67 -52 -27 -113 -60 -135 -73 -22 -12 -76 -43 -120 -68 -44 -24 -100 -56 -125 -70 -25 -14 -63 -35 -85 -47 -109 -58 -145 -83 -210 -146 -45 -44 -111 -91 -185 -134 -155 -91 -300 -185 -300 -196 0 -5 2 -9 4 -9 11 0 236 110 335 164 78 43 140 69 188 80 65 14 138 47 278 125 28 16 77 43 110 61 33 18 72 41 87 51 14 11 29 19 33 19 8 0 193 101 245 135 19 12 67 40 105 62 39 22 178 104 310 182 132 79 260 154 285 167 25 14 79 45 120 70 53 33 82 44 100 41 14 -3 103 -26 198 -51 l173 -47 112 62 c154 84 170 100 186 185 12 64 -7 284 -27 306 -22 26 -172 133 -217 156 -44 22 -99 32 -130 25z" fill="url(#gradient)" />

<path d="M13295 4064 c-11 -2 -45 -9 -75 -15 -30 -6 -97 -31 -149 -56 -173
-83 -307 -248 -358 -443 -12 -46 -18 -104 -18 -195 0 -91 6 -149 18 -195 51
-195 185 -360 358 -443 127 -61 179 -72 334 -72 148 0 226 19 350 83 122 63
252 217 290 340 l6 22 -160 0 c-156 0 -161 -1 -172 -22 -48 -92 -153 -163
-261 -176 -236 -28 -418 100 -468 329 -19 83 -9 259 18 329 32 80 87 154 145
194 82 56 129 69 242 70 89 1 106 -2 160 -27 64 -30 123 -81 156 -134 l21 -33
159 0 c87 0 159 2 159 5 0 3 -13 33 -29 68 -78 172 -236 302 -426 352 -59 16
-260 29 -300 19z"/>
<path d="M14818 4060 c-149 -27 -267 -89 -379 -200 -73 -72 -93 -100 -132
-180 -61 -125 -82 -229 -74 -365 8 -123 24 -186 78 -295 54 -109 177 -236 284
-292 122 -63 202 -83 345 -83 141 0 200 12 307 60 197 90 332 248 389 455 25
90 25 300 0 390 -67 242 -254 429 -498 496 -64 18 -255 26 -320 14z m295 -270
c117 -44 219 -172 248 -308 17 -85 7 -253 -20 -324 -68 -176 -204 -269 -393
-269 -266 1 -428 176 -428 466 0 152 35 249 122 342 53 55 128 98 201 113 69
15 205 5 270 -20z"/>
<path d="M21708 4060 c-149 -27 -267 -89 -379 -200 -73 -72 -93 -100 -132
-180 -61 -125 -82 -229 -74 -365 8 -123 24 -186 78 -295 54 -109 177 -236 284
-292 122 -63 202 -83 345 -83 141 0 200 12 307 60 197 90 332 248 389 455 25
90 25 300 0 390 -67 242 -254 429 -498 496 -64 18 -255 26 -320 14z m295 -270
c117 -44 219 -172 248 -308 17 -85 7 -253 -20 -324 -68 -176 -204 -269 -393
-269 -266 1 -428 176 -428 466 0 152 35 249 122 342 53 55 128 98 201 113 69
15 205 5 270 -20z"/>
<path d="M7395 4050 c-12 -19 -495 -1373 -495 -1387 0 -11 26 -13 142 -11
l143 3 46 130 46 130 279 3 279 2 46 -132 45 -133 147 -3 c81 -1 147 0 147 3
0 3 -109 308 -241 678 -133 369 -246 684 -251 700 l-10 27 -158 0 c-97 0 -161
-4 -165 -10z m264 -621 l98 -284 -195 -3 c-107 -1 -197 0 -200 2 -2 3 39 134
93 291 54 157 100 284 102 282 2 -3 48 -132 102 -288z"/>
<path d="M5550 3350 l0 -702 323 4 c291 4 330 7 400 26 344 95 535 386 497
757 -31 296 -210 508 -497 587 -70 19 -109 22 -400 26 l-323 4 0 -702z m611
446 c85 -18 140 -46 201 -104 170 -159 171 -526 2 -682 -89 -82 -171 -107
-376 -117 l-148 -6 0 461 0 462 128 0 c70 0 157 -7 193 -14z"/>
<path d="M8410 3350 l0 -701 143 3 142 3 3 273 2 272 63 0 63 0 149 -267 c82
-148 154 -271 159 -275 14 -10 304 -10 309 0 2 4 -69 132 -159 285 -135 230
-160 279 -146 283 9 3 44 19 78 35 233 110 292 442 115 641 -53 60 -178 123
-271 138 -36 5 -197 10 -357 10 l-293 0 0 -700z m646 443 c55 -29 85 -79 91
-153 10 -106 -44 -194 -134 -219 -21 -6 -100 -11 -175 -11 l-138 0 0 206 0
206 158 -4 c139 -3 162 -6 198 -25z"/>
<path d="M9610 3935 l0 -115 185 0 185 0 0 -590 0 -591 143 3 142 3 3 588 2
587 180 0 180 0 0 115 0 115 -510 0 -510 0 0 -115z"/>
<path d="M15870 3350 l0 -701 143 3 142 3 3 273 2 272 63 0 63 0 149 -267 c82
-148 154 -271 159 -275 14 -10 304 -10 309 0 2 4 -69 132 -159 285 -135 230
-160 279 -146 283 9 3 44 19 78 35 233 110 292 442 115 641 -53 60 -178 123
-271 138 -36 5 -197 10 -357 10 l-293 0 0 -700z m646 443 c55 -29 85 -79 91
-153 10 -106 -44 -194 -134 -219 -21 -6 -100 -11 -175 -11 l-138 0 0 206 0
206 158 -4 c139 -3 162 -6 198 -25z"/>
<path d="M17150 3350 l0 -700 405 0 405 0 0 115 0 115 -260 0 -260 0 0 185 0
185 230 0 230 0 0 110 0 110 -230 0 -230 0 0 175 0 175 260 0 260 0 0 115 0
115 -405 0 -405 0 0 -700z"/>
<path d="M18690 3351 l0 -701 145 0 145 0 0 270 0 270 153 0 c232 0 341 31
444 124 97 87 145 234 123 374 -27 165 -121 274 -290 333 -62 22 -82 23 -392
27 l-328 4 0 -701z m596 458 c92 -23 142 -106 131 -217 -7 -67 -38 -117 -91
-145 -36 -19 -60 -22 -193 -25 l-153 -4 0 201 0 201 131 0 c71 0 150 -5 175
-11z"/>
<path d="M19910 3350 l0 -701 143 3 142 3 3 273 2 272 63 0 63 0 149 -267 c82
-148 154 -271 159 -275 14 -10 304 -10 309 0 2 4 -69 132 -159 285 -135 230
-160 279 -146 283 9 3 44 19 78 35 233 110 292 442 115 641 -53 60 -178 123
-271 138 -36 5 -197 10 -357 10 l-293 0 0 -700z m646 443 c55 -29 85 -79 91
-153 10 -106 -44 -194 -134 -219 -21 -6 -100 -11 -175 -11 l-138 0 0 206 0
206 158 -4 c139 -3 162 -6 198 -25z"/>
<path d="M4039 3684 c-158 -38 -144 -26 -269 -234 -46 -78 -91 -145 -100 -149
-8 -5 -44 -14 -80 -20 -36 -7 -162 -35 -280 -62 -274 -63 -276 -64 -395 -89
-55 -12 -138 -30 -185 -41 -187 -43 -428 -100 -482 -114 -93 -24 -168 -43
-243 -61 -67 -17 -123 -41 -193 -86 -18 -11 -90 -35 -160 -53 -153 -39 -334
-94 -346 -106 -5 -5 -8 -11 -5 -13 6 -6 243 38 371 68 76 19 136 26 205 26 94
1 153 10 293 45 36 9 90 22 120 30 30 7 75 18 100 24 25 6 101 25 170 42 121
29 246 61 360 92 52 14 486 129 615 163 33 9 80 23 104 30 63 20 82 18 127
-14 21 -16 96 -62 167 -102 l128 -73 135 33 c195 47 220 75 258 285 9 50 18
100 21 111 5 24 -66 126 -149 212 -91 95 -112 99 -287 56z" fill="url(#gradient)"/>
</g>
</svg>
